<svg xmlns="http://www.w3.org/2000/svg" viewBox="0 0 32 32">
  <defs>
    <linearGradient id="bg" x1="0%" y1="0%" x2="0%" y2="100%">
      <stop offset="0%" stop-color="#1a1a2e"/>
      <stop offset="100%" stop-color="#16213e"/>
    </linearGradient>
    <linearGradient id="body" x1="0%" y1="0%" x2="0%" y2="100%">
      <stop offset="0%" stop-color="#2d2d2d"/>
      <stop offset="100%" stop-color="#1a1a1a"/>
    </linearGradient>
    <linearGradient id="belly" x1="0%" y1="0%" x2="0%" y2="100%">
      <stop offset="0%" stop-color="#ffffff"/>
      <stop offset="100%" stop-color="#e8e8e8"/>
    </linearGradient>
    <linearGradient id="shine" x1="0%" y1="0%" x2="100%" y2="100%">
      <stop offset="0%" stop-color="#e95420"/>
      <stop offset="100%" stop-color="#ff7b4d"/>
    </linearGradient>
  </defs>
  
  <rect width="32" height="32" rx="6" fill="url(#bg)"/>
  
  <ellipse cx="16" cy="24" rx="8" ry="7" fill="url(#body)"/>
  <ellipse cx="16" cy="25" rx="5" ry="5" fill="url(#belly)"/>
  
  <ellipse cx="16" cy="14" rx="6" ry="5" fill="url(#body)"/>
  
  <ellipse cx="10" cy="15" rx="3" ry="4.5" fill="url(#body)" transform="rotate(-15 10 15)"/>
  <ellipse cx="22" cy="15" rx="3" ry="4.5" fill="url(#body)" transform="rotate(15 22 15)"/>
  
  <ellipse cx="10" cy="14.5" rx="2" ry="3" fill="#0d0d0d" transform="rotate(-15 10 14.5)"/>
  <ellipse cx="22" cy="14.5" rx="2" ry="3" fill="#0d0d0d" transform="rotate(15 22 14.5)"/>
  
  <ellipse cx="13.5" cy="12.5" rx="2.5" ry="3" fill="#ffffff"/>
  <ellipse cx="18.5" cy="12.5" rx="2.5" ry="3" fill="#ffffff"/>
  
  <ellipse cx="13.5" cy="12.5" rx="1.2" ry="1.8" fill="#1a1a1a"/>
  <ellipse cx="18.5" cy="12.5" rx="1.2" ry="1.8" fill="#1a1a1a"/>
  
  <circle cx="13" cy="12" r="0.5" fill="#ffffff"/>
  <circle cx="18" cy="12" r="0.5" fill="#ffffff"/>
  
  <ellipse cx="16" cy="16.5" rx="1.5" ry="1" fill="#e95420"/>
  
  <ellipse cx="13" cy="28" rx="2" ry="1" fill="#e95420" transform="rotate(-10 13 28)"/>
  <ellipse cx="19" cy="28" rx="2" ry="1" fill="#e95420" transform="rotate(10 19 28)"/>
  
  <path d="M14 29 L13.5 31 L12.5 31 L14 32 L14.5 31 L14 31" fill="#e95420"/>
  <path d="M15 29 L14.5 31 L15.5 31 L15 32 L16 31 L15.5 31" fill="#e95420"/>
  
  <g>
    <path d="M4 8 L4.5 10 L6 10.5 L4.5 11 L4 13 L3.5 11 L2 10.5 L3.5 10 Z" fill="url(#shine)"/>
    <path d="M26 6 L26.5 8 L28 8.5 L26.5 9 L26 11 L25.5 9 L24 8.5 L25.5 8 Z" fill="url(#shine)"/>
    <path d="M28 16 L28.5 18 L30 18.5 L28.5 19 L28 21 L27.5 19 L26 18.5 L27.5 18 Z" fill="url(#shine)"/>
    <path d="M5 22 L5.5 24 L7 24.5 L5.5 25 L5 27 L4.5 25 L3 24.5 L4.5 24 Z" fill="url(#shine)"/>
  </g>
</svg>