<svg xmlns="http://www.w3.org/2000/svg" viewBox="0 0 64 64">
  <defs>
    <linearGradient id="bg" x1="0%" y1="0%" x2="0%" y2="100%">
      <stop offset="0%" stop-color="#1a1a2e"/>
      <stop offset="100%" stop-color="#16213e"/>
    </linearGradient>
    <linearGradient id="body" x1="0%" y1="0%" x2="0%" y2="100%">
      <stop offset="0%" stop-color="#2d2d2d"/>
      <stop offset="100%" stop-color="#1a1a1a"/>
    </linearGradient>
    <linearGradient id="belly" x1="0%" y1="0%" x2="0%" y2="100%">
      <stop offset="0%" stop-color="#ffffff"/>
      <stop offset="100%" stop-color="#e8e8e8"/>
    </linearGradient>
    <linearGradient id="broom" x1="0%" y1="0%" x2="100%" y2="0%">
      <stop offset="0%" stop-color="#8B4513"/>
      <stop offset="100%" stop-color="#654321"/>
    </linearGradient>
    <linearGradient id="shine" x1="0%" y1="0%" x2="100%" y2="100%">
      <stop offset="0%" stop-color="#e95420"/>
      <stop offset="100%" stop-color="#ff7b4d"/>
    </linearGradient>
    <filter id="glow">
      <feGaussianBlur stdDeviation="1" result="coloredBlur"/>
      <feMerge>
        <feMergeNode in="coloredBlur"/>
        <feMergeNode in="SourceGraphic"/>
      </feMerge>
    </filter>
  </defs>
  
  <rect width="64" height="64" rx="12" fill="url(#bg)"/>
  
  <ellipse cx="32" cy="58" rx="16" ry="4" fill="#0a0a12" opacity="0.4"/>
  
  <ellipse cx="32" cy="45" rx="14" ry="16" fill="url(#body)"/>
  <ellipse cx="32" cy="48" rx="10" ry="12" fill="url(#belly)"/>
  
  <ellipse cx="32" cy="28" rx="11" ry="10" fill="url(#body)"/>
  
  <ellipse cx="18" cy="30" rx="6" ry="9" fill="url(#body)" transform="rotate(-20 18 30)"/>
  <ellipse cx="46" cy="30" rx="6" ry="9" fill="url(#body)" transform="rotate(20 46 30)"/>
  
  <ellipse cx="17" cy="29" rx="4" ry="6" fill="#0d0d0d" transform="rotate(-20 17 29)"/>
  <ellipse cx="47" cy="29" rx="4" ry="6" fill="#0d0d0d" transform="rotate(20 47 29)"/>
  
  <ellipse cx="27" cy="26" rx="5" ry="6" fill="#ffffff"/>
  <ellipse cx="37" cy="26" rx="5" ry="6" fill="#ffffff"/>
  
  <ellipse cx="27" cy="26" rx="2.5" ry="3.5" fill="#1a1a1a"/>
  <ellipse cx="37" cy="26" rx="2.5" ry="3.5" fill="#1a1a1a"/>
  
  <circle cx="26" cy="25" r="1" fill="#ffffff"/>
  <circle cx="36" cy="25" r="1" fill="#ffffff"/>
  
  <ellipse cx="32" cy="33" rx="3" ry="2" fill="#e95420"/>
  
  <ellipse cx="26" cy="56" rx="4" ry="2" fill="#e95420" transform="rotate(-10 26 56)"/>
  <ellipse cx="38" cy="56" rx="4" ry="2" fill="#e95420" transform="rotate(10 38 56)"/>
  
  <path d="M28 58 L27 62 L25 62 L28 64 L29 62 L28 62" fill="#e95420"/>
  <path d="M30 58 L29 62 L31 62 L30 64 L34 62 L33 62" fill="#e95420"/>
  
  <ellipse cx="52" cy="48" rx="2" ry="4" fill="url(#broom)" transform="rotate(-40 52 48)"/>
  <path d="M48 42 L52 48 L44 48 Z" fill="#5a3d2b" transform="rotate(-40 48 45)"/>
  
  <g filter="url(#glow)">
    <path d="M10 18 L11 21 L14 22 L11 23 L10 26 L9 23 L6 22 L9 21 Z" fill="url(#shine)"/>
    <path d="M50 12 L51 14 L54 15 L51 16 L50 18 L49 16 L46 15 L49 14 Z" fill="url(#shine)"/>
    <path d="M54 28 L55 30 L57 31 L55 32 L54 34 L53 32 L51 31 L53 30 Z" fill="url(#shine)"/>
    <path d="M8 40 L9 42 L11 43 L9 44 L8 46 L7 44 L5 43 L7 42 Z" fill="url(#shine)"/>
  </g>
  
  <g>
    <circle cx="12" cy="32" r="1" fill="#e95420" opacity="0.6"/>
    <circle cx="56" cy="18" r="0.8" fill="#e95420" opacity="0.5"/>
    <circle cx="56" cy="50" r="1" fill="#e95420" opacity="0.4"/>
  </g>
</svg>