<svg xmlns="http://www.w3.org/2000/svg" viewBox="0 0 120 120">
  <defs>
    <linearGradient id="skyGrad" x1="0%" y1="0%" x2="0%" y2="100%">
      <stop offset="0%" stop-color="#1a1a2e"/>
      <stop offset="100%" stop-color="#16213e"/>
    </linearGradient>
    <linearGradient id="bodyGrad" x1="0%" y1="0%" x2="0%" y2="100%">
      <stop offset="0%" stop-color="#2d2d2d"/>
      <stop offset="50%" stop-color="#1a1a1a"/>
      <stop offset="100%" stop-color="#0d0d0d"/>
    </linearGradient>
    <linearGradient id="bellyGrad" x1="0%" y1="0%" x2="0%" y2="100%">
      <stop offset="0%" stop-color="#ffffff"/>
      <stop offset="100%" stop-color="#e8e8e8"/>
    </linearGradient>
    <linearGradient id="broomGrad" x1="0%" y1="0%" x2="100%" y2="0%">
      <stop offset="0%" stop-color="#8B4513"/>
      <stop offset="100%" stop-color="#654321"/>
    </linearGradient>
    <linearGradient id="shineGrad" x1="0%" y1="0%" x2="100%" y2="100%">
      <stop offset="0%" stop-color="#e95420"/>
      <stop offset="100%" stop-color="#ff7b4d"/>
    </linearGradient>
    <linearGradient id="sparkGrad" x1="0%" y1="0%" x2="0%" y2="100%">
      <stop offset="0%" stop-color="#ffffff"/>
      <stop offset="50%" stop-color="#e95420"/>
      <stop offset="100%" stop-color="#ff7b4d"/>
    </linearGradient>
    <filter id="glow">
      <feGaussianBlur stdDeviation="2" result="coloredBlur"/>
      <feMerge>
        <feMergeNode in="coloredBlur"/>
        <feMergeNode in="SourceGraphic"/>
      </feMerge>
    </filter>
    <filter id="shadow">
      <feDropShadow dx="0" dy="2" stdDeviation="3" flood-opacity="0.4"/>
    </filter>
  </defs>
  
  <rect width="120" height="120" rx="20" fill="url(#skyGrad)"/>
  
  <circle cx="60" cy="110" r="35" fill="#0a0a12" opacity="0.5"/>
  
  <g filter="url(#shadow)">
    <ellipse cx="60" cy="85" rx="28" ry="32" fill="url(#bodyGrad)"/>
    <ellipse cx="60" cy="90" rx="20" ry="24" fill="url(#bellyGrad)"/>
    
    <ellipse cx="60" cy="52" rx="22" ry="20" fill="url(#bodyGrad)"/>
    
    <ellipse cx="35" cy="55" rx="12" ry="18" fill="url(#bodyGrad)" transform="rotate(-25 35 55)"/>
    <ellipse cx="85" cy="55" rx="12" ry="18" fill="url(#bodyGrad)" transform="rotate(25 85 55)"/>
    
    <ellipse cx="33" cy="53" rx="8" ry="12" fill="#0d0d0d" transform="rotate(-25 33 53)"/>
    <ellipse cx="87" cy="53" rx="8" ry="12" fill="#0d0d0d" transform="rotate(25 87 53)"/>
    
    <ellipse cx="50" cy="48" rx="10" ry="12" fill="#ffffff"/>
    <ellipse cx="70" cy="48" rx="10" ry="12" fill="#ffffff"/>
    
    <ellipse cx="50" cy="48" rx="5" ry="7" fill="#1a1a1a"/>
    <ellipse cx="70" cy="48" rx="5" ry="7" fill="#1a1a1a"/>
    
    <circle cx="48" cy="46" r="2" fill="#ffffff"/>
    <circle cx="68" cy="46" r="2" fill="#ffffff"/>
    
    <ellipse cx="60" cy="62" rx="6" ry="4" fill="#e95420"/>
    
    <ellipse cx="48" cy="108" rx="8" ry="4" fill="#e95420" transform="rotate(-15 48 108)"/>
    <ellipse cx="72" cy="108" rx="8" ry="4" fill="#e95420" transform="rotate(15 72 108)"/>
    
    <path d="M52 112 L50 120 L46 120 L52 124 L54 120 L52 120" fill="#e95420"/>
    <path d="M56 112 L54 120 L58 120 L56 124 L62 120 L60 120" fill="#e95420"/>
  </g>
  
  <ellipse cx="95" cy="88" rx="4" ry="8" fill="url(#broomGrad)" transform="rotate(-45 95 88)"/>
  
  <path d="M88 78 L95 88 L82 88 Z" fill="#5a3d2b" transform="rotate(-45 90 83)"/>
  
  <g>
    <line x1="80" y1="76" x2="78" y2="70" stroke="#e95420" stroke-width="2" stroke-linecap="round"/>
    <line x1="82" y1="74" x2="82" y2="68" stroke="#e95420" stroke-width="2" stroke-linecap="round"/>
    <line x1="84" y1="76" x2="86" y2="70" stroke="#e95420" stroke-width="2" stroke-linecap="round"/>
  </g>
  
  <g filter="url(#glow)">
    <path d="M15 25 L17 30 L22 32 L17 34 L15 39 L13 34 L8 32 L13 30 Z" fill="url(#sparkGrad)"/>
    <path d="M100 35 L101.5 38.5 L105 40 L101.5 41.5 L100 45 L98.5 41.5 L95 40 L98.5 38.5 Z" fill="url(#sparkGrad)"/>
    <path d="M25 85 L26.5 88.5 L30 90 L26.5 91.5 L25 95 L23.5 91.5 L20 90 L23.5 88.5 Z" fill="url(#sparkGrad)"/>
    <path d="M105 70 L106 73 L109 74 L106 75 L105 78 L104 75 L101 74 L104 73 Z" fill="url(#sparkGrad)"/>
    <path d="M35 20 L36 23 L39 24 L36 25 L35 28 L34 25 L31 24 L34 23 Z" fill="url(#sparkGrad)"/>
    <path d="M90 55 L91 57.5 L94 58.5 L91 59.5 L90 62 L89 59.5 L86 58.5 L89 57.5 Z" fill="url(#sparkGrad)"/>
    <path d="M12 55 L13 57 L16 58 L13 59 L12 61 L11 59 L8 58 L11 57 Z" fill="url(#sparkGrad)"/>
  </g>
  
  <g>
    <circle cx="20" cy="40" r="1.5" fill="#e95420" opacity="0.7"/>
    <circle cx="108" cy="25" r="1" fill="#e95420" opacity="0.6"/>
    <circle cx="30" cy="15" r="1.2" fill="#e95420" opacity="0.5"/>
    <circle cx="95" cy="15" r="0.8" fill="#e95420" opacity="0.4"/>
    <circle cx="15" cy="75" r="1" fill="#e95420" opacity="0.5"/>
    <circle cx="108" cy="95" r="1.2" fill="#e95420" opacity="0.6"/>
  </g>
  
  <g opacity="0.15">
    <rect x="25" y="100" width="15" height="2" rx="1" fill="#e95420"/>
    <rect x="30" y="105" width="10" height="2" rx="1" fill="#e95420"/>
    <rect x="35" y="110" width="8" height="2" rx="1" fill="#e95420"/>
  </g>
</svg>